<?xml version="1.0" encoding="UTF-8"?>
<svg version="1.1" xmlns="http://www.w3.org/2000/svg" width="3200" height="3200">
<path d="M0 0 C2.33333333 2.33333333 4.66666667 4.66666667 7 7 C7 7.99 7 8.98 7 10 C7.66 10 8.32 10 9 10 C10.48015025 11.95042202 11.84345572 13.89610612 13.1875 15.9375 C16.49822231 20.86186298 19.93523978 25.5918451 23.6875 30.1953125 C25 32 25 32 26 35 C27.31321858 36.6825613 28.64613064 38.34997172 30 40 C30.33 40.66 30.66 41.32 31 42 C31.66 42.33 32.32 42.66 33 43 C33 43.99 33 44.98 33 46 C33.66 46 34.32 46 35 46 C35.92064957 47.31015516 36.8269752 48.63148667 37.68359375 49.984375 C39.26768788 52.40987225 40.97122276 54.72863592 42.6875 57.0625 C54.859375 73.71875 54.859375 73.71875 57 78 C58.73240241 80.22737453 60.4975651 82.41699974 62.33984375 84.5546875 C64.46902634 87.03564808 65.95509674 88.86529022 67 92 C68.29252458 93.69850987 69.63094423 95.3625502 71 97 C76.10744303 103.19116519 80.77822138 109.50244196 85.171875 116.22265625 C86.71308372 118.56410796 88.29475877 120.85442951 89.9375 123.125 C92 126 92 126 93 128 C94.31665664 129.67987227 95.65263027 131.34466005 97 133 C99.68248641 136.31041957 102.25502346 139.67121016 104.75 143.125 C106.85525158 146.03635163 108.96094883 148.9467617 111.0859375 151.84375 C114.1695362 156.04973137 117.2060951 160.2608376 120.0625 164.625 C122.60681101 168.5000753 125.4022076 172.11267994 128.27734375 175.74609375 C130.51813688 178.67792513 132.52288852 181.73813312 134.54296875 184.82421875 C136.37977284 187.56711387 138.35318796 190.18709394 140.34765625 192.81640625 C142.35445857 195.46842161 144.3390773 198.13553979 146.3125 200.8125 C147.32763672 202.18341797 147.32763672 202.18341797 148.36328125 203.58203125 C150 206 150 206 151 209 C151.70125 209.66 152.4025 210.32 153.125 211 C156.61315758 214.30563771 158.87866924 218.39237227 161.3515625 222.4765625 C162.86532878 224.98239767 162.86532878 224.98239767 164.7109375 226.7109375 C166 228 166 228 166 230 C167.11643778 231.0815491 168.23394535 232.16200664 169.35546875 233.23828125 C179 243.57007126 179 243.57007126 179 249 C179.99 249.33 180.98 249.66 182 250 C183.6484375 252.29296875 183.6484375 252.29296875 185.375 255.1875 C187.99058252 259.44669492 190.79108529 263.16495558 194 267 C196.08524744 270.0394435 198.11547647 273.11043678 200.1328125 276.1953125 C201.91770469 278.95049674 201.91770469 278.95049674 203.7421875 281.2421875 C205 283 205 283 205 285 C205.66 285 206.32 285 207 285 C208.54236738 287.03366201 209.97124441 289.06122316 211.375 291.1875 C212.15183557 292.34886917 212.93046264 293.50904216 213.7109375 294.66796875 C214.08959961 295.23306152 214.46826172 295.7981543 214.85839844 296.38037109 C215.92350297 297.89147106 217.10333472 299.31985945 218.2890625 300.73828125 C220 303 220 303 220 306 C220.66 306 221.32 306 222 306 C223.26953125 307.5546875 223.26953125 307.5546875 224.8125 309.875 C228.35428416 315.08306658 231.99874821 320.20737898 235.6875 325.3125 C236.24606689 326.08899902 236.80463379 326.86549805 237.38012695 327.66552734 C239.64819978 330.80750224 241.9031568 333.88451488 244.39453125 336.85546875 C246 339 246 339 246 342 C246.66 342 247.32 342 248 342 C249.63429751 344.0944968 251.14167234 346.17782091 252.625 348.375 C253.04523438 348.97828125 253.46546875 349.5815625 253.8984375 350.203125 C257 354.73462865 257 354.73462865 257 357 C257.66 357 258.32 357 259 357 C260.80068015 359.42649031 262.47836549 361.84739297 264.125 364.375 C264.59292969 365.07367187 265.06085938 365.77234375 265.54296875 366.4921875 C269 371.73316782 269 371.73316782 269 374 C269.99 374.33 270.98 374.66 272 375 C273.80967349 377.64490741 274.98472371 379.95417113 276 383 C276.99 383.66 277.98 384.32 279 385 C279.144375 385.61875 279.28875 386.2375 279.4375 386.875 C280.19957981 389.75396817 281.85949653 390.993278 284 393 C284.33 393.66 284.66 394.32 285 395 C285.9590625 395.8971875 285.9590625 395.8971875 286.9375 396.8125 C289 399 289 399 289.9375 401.4375 C291.31975351 404.77117023 293.42073434 406.47935402 296 409 C299.65623995 413.42790868 302.47719292 417.83425216 305 423 C305.515625 423.515625 306.03125 424.03125 306.5625 424.5625 C308 426 308 426 309 428.625 C309.33 429.40875 309.66 430.1925 310 431 C310.99 431.33 311.98 431.66 313 432 C314.32421875 433.6796875 314.32421875 433.6796875 315.6875 435.875 C317.99874947 439.48489707 320.40091964 442.98165505 322.9375 446.4375 C328.43242187 453.95742187 328.43242187 453.95742187 330.875 457.375 C331.42929688 458.14585937 331.98359375 458.91671875 332.5546875 459.7109375 C334.04342914 462.06878237 335.04806777 464.38449688 336 467 C336.66 467 337.32 467 338 467 C338.94088551 468.32420924 339.8680456 469.65957746 340.73828125 471.03125 C344.69192635 477.20040521 349.04630891 483.10614198 353.47265625 488.94140625 C355.17828415 491.24029603 356.80889886 493.58346405 358.4375 495.9375 C360.69561542 499.19315652 363.02847802 502.34118611 365.5 505.4375 C369.92692744 511.05629252 374.72284286 517.16852857 377 524 C377.66 524 378.32 524 379 524 C379 524.66 379 525.32 379 526 C380.16761026 527.13326878 381.33659237 528.26515185 382.51171875 529.390625 C384.85102507 531.92026858 386.60433113 534.79791094 388.47265625 537.68359375 C390.32026988 540.485729 392.32001328 543.14335968 394.34765625 545.81640625 C396.35445857 548.46842161 398.3390773 551.13553979 400.3125 553.8125 C401.32763672 555.18341797 401.32763672 555.18341797 402.36328125 556.58203125 C404 559 404 559 405 562 C405.70125 562.66 406.4025 563.32 407.125 564 C410.61315758 567.30563771 412.87866924 571.39237227 415.3515625 575.4765625 C416.86532878 577.98239767 416.86532878 577.98239767 418.7109375 579.7109375 C420 581 420 581 420 583 C421.16669282 584.16669282 422.33703021 585.32992305 423.5234375 586.4765625 C431.68864241 594.90098027 438.13000299 605.94356025 444.41796875 615.8046875 C446.74788983 619.03781256 449.37641936 622.00328085 452 625 C452.35602295 624.43829102 452.7120459 623.87658203 453.07885742 623.29785156 C459.98228605 612.41222766 466.9196548 601.55141131 473.96166992 590.75488281 C478.34491364 584.0268376 482.67751783 577.26721105 487 570.5 C493.46134402 560.38608941 499.97942762 550.31083064 506.53125 540.25537109 C513.36290562 529.76487332 520.13317835 519.23593386 526.875 508.6875 C533.3790858 498.51182708 539.93845184 488.37371852 546.53125 478.25537109 C553.32194674 467.82776862 560.05091618 457.36167044 566.75 446.875 C572.56520646 437.77314689 578.43686218 428.71052064 584.35009766 419.67211914 C589.67034508 411.52980922 594.91457881 403.34013342 600.14916992 395.14257812 C605.88798975 386.16044388 611.69020288 377.22079014 617.50927734 368.29052734 C619.42996295 365.33935271 621.3445037 362.38424114 623.2565918 359.42749023 C624.15639368 358.03677058 625.05755964 356.64693237 625.96020508 355.25805664 C628.34777536 351.57997896 630.70266725 347.88470951 633.0234375 344.1640625 C633.52149902 343.37346436 634.01956055 342.58286621 634.53271484 341.76831055 C635.49229973 340.2439916 636.44352433 338.7143693 637.38525391 337.17895508 C638.51100411 335.3999996 639.74670621 333.69152321 641 332 C641.99 332 642.98 332 644 332 C645.64692722 334.28296068 647.07970942 336.51761109 648.5 338.9375 C649.39575287 340.41750432 650.29293571 341.89664393 651.19140625 343.375 C651.65434082 344.14199219 652.11727539 344.90898438 652.59423828 345.69921875 C654.80804976 349.3225184 657.11984243 352.88005919 659.4375 356.4375 C660.36979572 357.87369528 661.30208737 359.30989321 662.234375 360.74609375 C662.69521484 361.45491699 663.15605469 362.16374023 663.63085938 362.89404297 C665.81957796 366.26064185 668.00451309 369.62968217 670.1875 373 C670.6311792 373.68489502 671.0748584 374.36979004 671.53198242 375.07543945 C675.62934273 381.40954026 679.68907523 387.76750198 683.75 394.125 C689.56516569 403.22687891 695.43686246 412.2894798 701.35009766 421.32788086 C706.67034508 429.47019078 711.91457881 437.65986658 717.14916992 445.85742188 C722.895422 454.85118873 728.70491532 463.80261717 734.53125 472.74462891 C741.36290562 483.23512668 748.13317835 493.76406614 754.875 504.3125 C761.3790858 514.48817292 767.93845184 524.62628148 774.53125 534.74462891 C781.36290562 545.23512668 788.13317835 555.76406614 794.875 566.3125 C801.37165098 576.4765411 807.92370315 586.60289841 814.50927734 596.70947266 C818.24573387 602.45061826 821.96031851 608.20595842 825.67919922 613.95849609 C826.9734554 615.95897117 828.26961316 617.95819997 829.56640625 619.95703125 C835.03421658 628.38879737 840.46336293 636.84456305 845.875 645.3125 C852.37904077 655.48820144 858.9384521 665.62628188 865.53125 675.74462891 C872.36290562 686.23512668 879.13317835 696.76406614 885.875 707.3125 C892.3790858 717.48817292 898.93845184 727.62628148 905.53125 737.74462891 C912.36290562 748.23512668 919.13317835 758.76406614 925.875 769.3125 C932.3790858 779.48817292 938.93845184 789.62628148 945.53125 799.74462891 C952.32194674 810.17223138 959.05091618 820.63832956 965.75 831.125 C971.56520646 840.22685311 977.43686218 849.28947936 983.35009766 858.32788086 C988.67034508 866.47019078 993.91457881 874.65986658 999.14916992 882.85742188 C1004.895422 891.85118873 1010.70491532 900.80261717 1016.53125 909.74462891 C1023.36290562 920.23512668 1030.13317835 930.76406614 1036.875 941.3125 C1043.3790858 951.48817292 1049.93845184 961.62628148 1056.53125 971.74462891 C1063.36290562 982.23512668 1070.13317835 992.76406614 1076.875 1003.3125 C1083.37165098 1013.4765411 1089.92370315 1023.60289841 1096.50927734 1033.70947266 C1100.24573387 1039.45061826 1103.96031851 1045.20595842 1107.67919922 1050.95849609 C1108.9734554 1052.95897117 1110.26961316 1054.95819997 1111.56640625 1056.95703125 C1117.03421658 1065.38879737 1122.46336293 1073.84456305 1127.875 1082.3125 C1134.37904077 1092.48820144 1140.9384521 1102.62628188 1147.53125 1112.74462891 C1154.36290562 1123.23512668 1161.13317835 1133.76406614 1167.875 1144.3125 C1172.82681777 1152.05964226 1177.79716006 1159.79381588 1182.8125 1167.5 C1183.33344238 1168.30155518 1183.85438477 1169.10311035 1184.39111328 1169.92895508 C1186.9865171 1173.91933736 1189.59298066 1177.90194872 1192.21484375 1181.875 C1192.98187622 1183.04385742 1192.98187622 1183.04385742 1193.7644043 1184.23632812 C1194.7260526 1185.70163677 1195.69208474 1187.16408169 1196.66333008 1188.62304688 C1198.75871481 1191.82462657 1200.06110138 1194.24440552 1201 1198 C1032.7 1198.495 1032.7 1198.495 861 1199 C860.67 1199.66 860.34 1200.32 860 1201 C576.2 1201 292.4 1201 0 1201 C0 1200.01 0 1199.02 0 1198 C-422.4 1198 -844.8 1198 -1280 1198 C-1278.54387498 1194.35968745 -1277.61856445 1192.19706071 -1275.41796875 1189.20703125 C-1274.90492188 1188.50384766 -1274.391875 1187.80066406 -1273.86328125 1187.07617188 C-1273.03376953 1185.9556543 -1273.03376953 1185.9556543 -1272.1875 1184.8125 C-1271.00376568 1183.19411323 -1269.82017591 1181.57562071 -1268.63671875 1179.95703125 C-1268.03134277 1179.13283691 -1267.4259668 1178.30864258 -1266.80224609 1177.45947266 C-1264.01410554 1173.6545786 -1261.25770988 1169.82697444 -1258.5 1166 C-1257.41817154 1164.50115569 -1256.33613962 1163.00245822 -1255.25390625 1161.50390625 C-1254.44977295 1160.39039795 -1254.44977295 1160.39039795 -1253.62939453 1159.25439453 C-1251.99280851 1156.99005001 -1250.35408835 1154.72726419 -1248.71484375 1152.46484375 C-1242.93074391 1144.47727731 -1237.19197239 1136.46137871 -1231.51928711 1128.39428711 C-1227.34744926 1122.47020892 -1223.10686623 1116.59759925 -1218.85546875 1110.73046875 C-1215.20004284 1105.67917614 -1211.58653845 1100.60039475 -1208 1095.5 C-1201.2078953 1085.84476537 -1194.28179787 1076.28794068 -1187.35449219 1066.72949219 C-1181.52537139 1058.68371227 -1175.71672884 1050.62615028 -1170 1042.5 C-1163.20767176 1032.84491899 -1156.28180085 1023.2879448 -1149.35449219 1013.72949219 C-1143.02171736 1004.98853205 -1136.72809656 996.22379766 -1130.51928711 987.39428711 C-1126.34744926 981.47020892 -1122.10686623 975.59759925 -1117.85546875 969.73046875 C-1114.20004284 964.67917614 -1110.58653845 959.60039475 -1107 954.5 C-1100.2078953 944.84476537 -1093.28179787 935.28794068 -1086.35449219 925.72949219 C-1080.52537139 917.68371227 -1074.71672884 909.62615028 -1069 901.5 C-1062.20767176 891.84491899 -1055.28180085 882.2879448 -1048.35449219 872.72949219 C-1042.02171736 863.98853205 -1035.72809656 855.22379766 -1029.51928711 846.39428711 C-1025.34744926 840.47020892 -1021.10686623 834.59759925 -1016.85546875 828.73046875 C-1013.20004284 823.67917614 -1009.58653845 818.60039475 -1006 813.5 C-999.2078953 803.84476537 -992.28179787 794.28794068 -985.35449219 784.72949219 C-979.02326315 775.99066566 -972.73164986 767.22775351 -966.52368164 758.40087891 C-962.30139238 752.40593639 -958.01498685 746.45878773 -953.71484375 740.51953125 C-950.46049295 736.02431288 -947.22002572 731.51986468 -944 727 C-940.23243835 721.71157367 -936.43292858 716.44692136 -932.625 711.1875 C-928.37757113 705.31868728 -924.16751589 699.42581594 -920 693.5 C-915.28957156 686.80221343 -910.51683345 680.15192644 -905.71484375 673.51953125 C-902.46049295 669.02431288 -899.22002572 664.51986468 -896 660 C-892.23243835 654.71157367 -888.43292858 649.44692136 -884.625 644.1875 C-879.87461056 637.62373005 -875.18049019 631.02309566 -870.52001953 624.39526367 C-866.3478637 618.47091185 -862.10710526 612.59792911 -857.85546875 606.73046875 C-854.20004284 601.67917614 -850.58653845 596.60039475 -847 591.5 C-840.2078953 581.84476537 -833.28179787 572.28794068 -826.35449219 562.72949219 C-820.52537139 554.68371227 -814.71672884 546.62615028 -809 538.5 C-802.20767176 528.84491899 -795.28180085 519.2879448 -788.35449219 509.72949219 C-782.02171736 500.98853205 -775.72809656 492.22379766 -769.51928711 483.39428711 C-765.34744926 477.47020892 -761.10686623 471.59759925 -756.85546875 465.73046875 C-753.20004284 460.67917614 -749.58653845 455.60039475 -746 450.5 C-739.2078953 440.84476537 -732.28179787 431.28794068 -725.35449219 421.72949219 C-719.52537139 413.68371227 -713.71672884 405.62615028 -708 397.5 C-701.20767176 387.84491899 -694.28180085 378.2879448 -687.35449219 368.72949219 C-685.71467059 366.46609019 -684.07591127 364.20192306 -682.4375 361.9375 C-681.90455322 361.20192871 -681.37160645 360.46635742 -680.82250977 359.70849609 C-678.08077636 355.91545261 -675.36632723 352.10613193 -672.69140625 348.265625 C-672.15523682 347.49742432 -671.61906738 346.72922363 -671.06665039 345.93774414 C-670.05478118 344.48435493 -669.04714391 343.02800601 -668.04467773 341.56811523 C-665.31223642 337.64410464 -662.4921408 334.27071882 -659 331 C-658.20442708 332.1015625 -657.40885417 333.203125 -656.61328125 334.3046875 C-656.0937085 335.02406494 -655.57413574 335.74344238 -655.03881836 336.48461914 C-653.87154498 338.10090731 -652.70439331 339.71728339 -651.53735352 341.33374023 C-648.5823616 345.42633096 -645.62584311 349.51778764 -642.6640625 353.60546875 C-636.89678499 361.56951436 -631.17533838 369.56227641 -625.51928711 377.60571289 C-621.88539314 382.76590195 -618.20321926 387.88938149 -614.5 393 C-610.29314076 398.8056656 -606.12404728 404.63521719 -602 410.5 C-595.74567124 419.39076572 -589.3788447 428.19833001 -583 437 C-576.11674383 446.49766801 -569.26615918 456.01432033 -562.51708984 465.60791016 C-556.75185476 473.79186072 -550.87446007 481.894291 -545 490 C-538.11735541 499.49682413 -531.2657806 509.0115651 -524.51928711 518.60571289 C-520.88539314 523.76590195 -517.20321926 528.88938149 -513.5 534 C-509.29314076 539.8056656 -505.12404728 545.63521719 -501 551.5 C-494.74567124 560.39076572 -488.3788447 569.19833001 -482 578 C-471.19745274 592.90559192 -460.53416 607.90351014 -450 623 C-446.53759116 621.84586372 -446.15544762 621.15620324 -444.21484375 618.203125 C-443.68947021 617.41599121 -443.16409668 616.62885742 -442.62280273 615.81787109 C-442.06665283 614.97047363 -441.51050293 614.12307617 -440.9375 613.25 C-436.34543323 606.38773381 -431.60926981 599.78366116 -426.515625 593.28515625 C-423.07714636 588.85082663 -419.88843694 584.24026059 -416.66943359 579.64575195 C-413.00798177 574.42117318 -409.3031084 569.23069715 -405.5625 564.0625 C-405.0247998 563.31943604 -404.48709961 562.57637207 -403.93310547 561.81079102 C-402.84043645 560.30156434 -401.74749931 558.79253175 -400.65429688 557.28369141 C-397.87081798 553.44120888 -395.09125401 549.5959003 -392.3125 545.75 C-391.49664429 544.6209021 -391.49664429 544.6209021 -390.66430664 543.46899414 C-387.42939142 538.98886417 -384.20756872 534.49974203 -381 530 C-377.24791618 524.73638425 -373.47334082 519.48938835 -369.6875 514.25 C-369.14037354 513.49275635 -368.59324707 512.7355127 -368.02954102 511.95532227 C-365.25629293 508.11834037 -362.480812 504.28298829 -359.703125 500.44921875 C-354.42667206 493.16190085 -349.17673876 485.85857137 -344 478.5 C-338.28208009 470.37215666 -332.47175905 462.31333956 -326.64111328 454.26611328 C-323.92351827 450.513552 -321.21205527 446.75656581 -318.5 443 C-317.41669638 441.49997854 -316.33336304 439.99997854 -315.25 438.5 C-314.71375 437.7575 -314.1775 437.015 -313.625 436.25 C-295.74999999 411.49999999 -295.74999999 411.49999999 -294.12426758 409.24902344 C-293.04332809 407.75231299 -291.96243599 406.25556832 -290.8815918 404.75878906 C-288.1370246 400.95817363 -285.39158034 397.15819702 -282.64453125 393.359375 C-277.74654666 386.58459258 -272.85255912 379.80741898 -268 373 C-264.24791618 367.73638425 -260.47334082 362.48938835 -256.6875 357.25 C-255.8668103 356.11413452 -255.8668103 356.11413452 -255.02954102 354.95532227 C-252.25629293 351.11834037 -249.480812 347.28298829 -246.703125 343.44921875 C-241.42667206 336.16190085 -236.17673876 328.85857137 -231 321.5 C-225.28208009 313.37215666 -219.47175905 305.31333956 -213.64111328 297.26611328 C-210.92351827 293.513552 -208.21205527 289.75656581 -205.5 286 C-204.41669638 284.49997854 -203.33336304 282.99997854 -202.25 281.5 C-201.71375 280.7575 -201.1775 280.015 -200.625 279.25 C-182.74999999 254.49999998 -182.74999999 254.49999998 -181.12426758 252.24902344 C-180.04332809 250.75231299 -178.96243599 249.25556832 -177.8815918 247.75878906 C-175.1370246 243.95817363 -172.39158034 240.15819702 -169.64453125 236.359375 C-164.74654666 229.58459258 -159.85255912 222.80741898 -155 216 C-151.24791618 210.73638425 -147.47334082 205.48938835 -143.6875 200.25 C-143.14037354 199.49275635 -142.59324707 198.7355127 -142.02954102 197.95532227 C-139.25629293 194.11834037 -136.480812 190.28298829 -133.703125 186.44921875 C-128.42667206 179.16190085 -123.17673876 171.85857137 -118 164.5 C-112.28208009 156.37215666 -106.47175905 148.31333956 -100.64111328 140.26611328 C-97.92351827 136.513552 -95.21205527 132.75656581 -92.5 129 C-91.41669638 127.49997854 -90.33336304 125.99997854 -89.25 124.5 C-88.71375 123.7575 -88.1775 123.015 -87.625 122.25 C-69.75000001 97.50000002 -69.75000001 97.50000002 -68.12426758 95.24902344 C-67.04332809 93.75231299 -65.96243599 92.25556832 -64.8815918 90.75878906 C-62.1370246 86.95817363 -59.39158034 83.15819702 -56.64453125 79.359375 C-51.34532576 72.02963282 -46.05695791 64.69286824 -40.80786133 57.32714844 C-36.83523893 51.75764846 -32.82520452 46.21536402 -28.81640625 40.671875 C-25.13535795 35.57903641 -21.47310049 30.47336889 -17.82836914 25.35449219 C-15.40883411 21.96034698 -12.97350187 18.57814501 -10.52734375 15.203125 C-9.93244141 14.38199219 -9.33753906 13.56085937 -8.72460938 12.71484375 C-7.55141068 11.09672708 -6.37697111 9.47950923 -5.20117188 7.86328125 C-4.66943359 7.12980469 -4.13769531 6.39632813 -3.58984375 5.640625 C-3.11409912 4.98610352 -2.63835449 4.33158203 -2.14819336 3.65722656 C-0.93803054 1.99420916 -0.93803054 1.99420916 0 0 Z " fill="#72A7CF" transform="translate(1600,504)"/>
<path d="M0 0 C7 7 7 7 7 10 C7.66 10 8.32 10 9 10 C10.48015025 11.95042202 11.84345572 13.89610612 13.1875 15.9375 C16.49822231 20.86186298 19.93523978 25.5918451 23.6875 30.1953125 C25 32 25 32 26 35 C27.31321858 36.6825613 28.64613064 38.34997172 30 40 C30.33 40.66 30.66 41.32 31 42 C31.66 42.33 32.32 42.66 33 43 C33 43.99 33 44.98 33 46 C33.66 46 34.32 46 35 46 C35.92064957 47.31015516 36.8269752 48.63148667 37.68359375 49.984375 C39.26768788 52.40987225 40.97122276 54.72863592 42.6875 57.0625 C54.859375 73.71875 54.859375 73.71875 57 78 C58.73240241 80.22737453 60.4975651 82.41699974 62.33984375 84.5546875 C64.46902634 87.03564808 65.95509674 88.86529022 67 92 C68.29252458 93.69850987 69.63094423 95.3625502 71 97 C76.10744303 103.19116519 80.77822138 109.50244196 85.171875 116.22265625 C86.71308372 118.56410796 88.29475877 120.85442951 89.9375 123.125 C92 126 92 126 93 128 C94.31665664 129.67987227 95.65263027 131.34466005 97 133 C99.68248641 136.31041957 102.25502346 139.67121016 104.75 143.125 C106.85525158 146.03635163 108.96094883 148.9467617 111.0859375 151.84375 C114.1695362 156.04973137 117.2060951 160.2608376 120.0625 164.625 C122.60681101 168.5000753 125.4022076 172.11267994 128.27734375 175.74609375 C130.51813688 178.67792513 132.52288852 181.73813312 134.54296875 184.82421875 C136.37977284 187.56711387 138.35318796 190.18709394 140.34765625 192.81640625 C142.35445857 195.46842161 144.3390773 198.13553979 146.3125 200.8125 C147.32763672 202.18341797 147.32763672 202.18341797 148.36328125 203.58203125 C150 206 150 206 151 209 C151.70125 209.66 152.4025 210.32 153.125 211 C156.61315758 214.30563771 158.87866924 218.39237227 161.3515625 222.4765625 C162.86532878 224.98239767 162.86532878 224.98239767 164.7109375 226.7109375 C166 228 166 228 166 230 C167.11643778 231.0815491 168.23394535 232.16200664 169.35546875 233.23828125 C179 243.57007126 179 243.57007126 179 249 C179.99 249.33 180.98 249.66 182 250 C183.6484375 252.29296875 183.6484375 252.29296875 185.375 255.1875 C187.99058252 259.44669492 190.79108529 263.16495558 194 267 C196.08524744 270.0394435 198.11547647 273.11043678 200.1328125 276.1953125 C201.91770469 278.95049674 201.91770469 278.95049674 203.7421875 281.2421875 C205 283 205 283 205 285 C205.66 285 206.32 285 207 285 C208.54236738 287.03366201 209.97124441 289.06122316 211.375 291.1875 C212.15183557 292.34886917 212.93046264 293.50904216 213.7109375 294.66796875 C214.08959961 295.23306152 214.46826172 295.7981543 214.85839844 296.38037109 C215.92350297 297.89147106 217.10333472 299.31985945 218.2890625 300.73828125 C220 303 220 303 220 306 C220.66 306 221.32 306 222 306 C223.26953125 307.5546875 223.26953125 307.5546875 224.8125 309.875 C228.35428416 315.08306658 231.99874821 320.20737898 235.6875 325.3125 C236.52535034 326.47724854 236.52535034 326.47724854 237.38012695 327.66552734 C239.64819978 330.80750224 241.9031568 333.88451488 244.39453125 336.85546875 C246 339 246 339 246 342 C246.66 342 247.32 342 248 342 C249.63429751 344.0944968 251.14167234 346.17782091 252.625 348.375 C253.04523438 348.97828125 253.46546875 349.5815625 253.8984375 350.203125 C257 354.73462865 257 354.73462865 257 357 C257.66 357 258.32 357 259 357 C260.80068015 359.42649031 262.47836549 361.84739297 264.125 364.375 C264.59292969 365.07367187 265.06085938 365.77234375 265.54296875 366.4921875 C269 371.73316782 269 371.73316782 269 374 C269.99 374.33 270.98 374.66 272 375 C273.80967349 377.64490741 274.98472371 379.95417113 276 383 C276.99 383.66 277.98 384.32 279 385 C279.144375 385.61875 279.28875 386.2375 279.4375 386.875 C280.19957981 389.75396817 281.85949653 390.993278 284 393 C284.33 393.66 284.66 394.32 285 395 C285.9590625 395.8971875 285.9590625 395.8971875 286.9375 396.8125 C289 399 289 399 289.9375 401.4375 C291.31975351 404.77117023 293.42073434 406.47935402 296 409 C299.65623995 413.42790868 302.47719292 417.83425216 305 423 C305.515625 423.515625 306.03125 424.03125 306.5625 424.5625 C308 426 308 426 309 428.625 C309.33 429.40875 309.66 430.1925 310 431 C310.99 431.33 311.98 431.66 313 432 C314.32421875 433.6796875 314.32421875 433.6796875 315.6875 435.875 C317.99874947 439.48489707 320.40091964 442.98165505 322.9375 446.4375 C328.43242187 453.95742187 328.43242187 453.95742187 330.875 457.375 C331.42929688 458.14585937 331.98359375 458.91671875 332.5546875 459.7109375 C334.04342914 462.06878237 335.04806777 464.38449688 336 467 C336.66 467 337.32 467 338 467 C338.94088551 468.32420924 339.8680456 469.65957746 340.73828125 471.03125 C344.69192635 477.20040521 349.04630891 483.10614198 353.47265625 488.94140625 C355.17828415 491.24029603 356.80889886 493.58346405 358.4375 495.9375 C360.69561542 499.19315652 363.02847802 502.34118611 365.5 505.4375 C369.92692744 511.05629252 374.72284286 517.16852857 377 524 C377.66 524 378.32 524 379 524 C379 524.66 379 525.32 379 526 C380.16761026 527.13326878 381.33659237 528.26515185 382.51171875 529.390625 C384.85102507 531.92026858 386.60433113 534.79791094 388.47265625 537.68359375 C390.32026988 540.485729 392.32001328 543.14335968 394.34765625 545.81640625 C396.35445857 548.46842161 398.3390773 551.13553979 400.3125 553.8125 C401.32763672 555.18341797 401.32763672 555.18341797 402.36328125 556.58203125 C404 559 404 559 405 562 C405.70125 562.66 406.4025 563.32 407.125 564 C410.61315758 567.30563771 412.87866924 571.39237227 415.3515625 575.4765625 C416.86532878 577.98239767 416.86532878 577.98239767 418.7109375 579.7109375 C420 581 420 581 420 583 C421.16669282 584.16669282 422.33703021 585.32992305 423.5234375 586.4765625 C431.68864241 594.90098027 438.13000299 605.94356025 444.41796875 615.8046875 C446.74788983 619.03781256 449.37641936 622.00328085 452 625 C452.35602295 624.43829102 452.7120459 623.87658203 453.07885742 623.29785156 C459.98228605 612.41222766 466.9196548 601.55141131 473.96166992 590.75488281 C478.34491364 584.0268376 482.67751783 577.26721105 487 570.5 C493.46134402 560.38608941 499.97942762 550.31083064 506.53125 540.25537109 C513.36290562 529.76487332 520.13317835 519.23593386 526.875 508.6875 C533.3790858 498.51182708 539.93845184 488.37371852 546.53125 478.25537109 C553.32194674 467.82776862 560.05091618 457.36167044 566.75 446.875 C572.56520646 437.77314689 578.43686218 428.71052064 584.35009766 419.67211914 C589.67034508 411.52980922 594.91457881 403.34013342 600.14916992 395.14257812 C605.88798975 386.16044388 611.69020288 377.22079014 617.50927734 368.29052734 C619.42996295 365.33935271 621.3445037 362.38424114 623.2565918 359.42749023 C624.15639368 358.03677058 625.05755964 356.64693237 625.96020508 355.25805664 C628.34777536 351.57997896 630.70266725 347.88470951 633.0234375 344.1640625 C633.77052979 342.97816528 633.77052979 342.97816528 634.53271484 341.76831055 C635.49229973 340.2439916 636.44352433 338.7143693 637.38525391 337.17895508 C638.51100411 335.3999996 639.74670621 333.69152321 641 332 C641.99 332 642.98 332 644 332 C645.64692722 334.28296068 647.07970942 336.51761109 648.5 338.9375 C649.39575287 340.41750432 650.29293571 341.89664393 651.19140625 343.375 C651.65434082 344.14199219 652.11727539 344.90898438 652.59423828 345.69921875 C654.80804976 349.3225184 657.11984243 352.88005919 659.4375 356.4375 C660.36979572 357.87369528 661.30208737 359.30989321 662.234375 360.74609375 C662.92563477 361.80932861 662.92563477 361.80932861 663.63085938 362.89404297 C665.81957796 366.26064185 668.00451309 369.62968217 670.1875 373 C670.8530188 374.02734253 670.8530188 374.02734253 671.53198242 375.07543945 C675.62934273 381.40954026 679.68907523 387.76750198 683.75 394.125 C689.56516569 403.22687891 695.43686246 412.2894798 701.35009766 421.32788086 C706.67034508 429.47019078 711.91457881 437.65986658 717.14916992 445.85742188 C722.895422 454.85118873 728.70491532 463.80261717 734.53125 472.74462891 C741.36290562 483.23512668 748.13317835 493.76406614 754.875 504.3125 C761.3790858 514.48817292 767.93845184 524.62628148 774.53125 534.74462891 C781.36290562 545.23512668 788.13317835 555.76406614 794.875 566.3125 C801.37165098 576.4765411 807.92370315 586.60289841 814.50927734 596.70947266 C818.24573387 602.45061826 821.96031851 608.20595842 825.67919922 613.95849609 C826.9734554 615.95897117 828.26961316 617.95819997 829.56640625 619.95703125 C835.03421658 628.38879737 840.46336293 636.84456305 845.875 645.3125 C852.37904077 655.48820144 858.9384521 665.62628188 865.53125 675.74462891 C872.36290562 686.23512668 879.13317835 696.76406614 885.875 707.3125 C892.3790858 717.48817292 898.93845184 727.62628148 905.53125 737.74462891 C912.36290562 748.23512668 919.13317835 758.76406614 925.875 769.3125 C932.3790858 779.48817292 938.93845184 789.62628148 945.53125 799.74462891 C952.32194674 810.17223138 959.05091618 820.63832956 965.75 831.125 C971.56520646 840.22685311 977.43686218 849.28947936 983.35009766 858.32788086 C988.67034508 866.47019078 993.91457881 874.65986658 999.14916992 882.85742188 C1004.895422 891.85118873 1010.70491532 900.80261717 1016.53125 909.74462891 C1023.36290562 920.23512668 1030.13317835 930.76406614 1036.875 941.3125 C1043.3790858 951.48817292 1049.93845184 961.62628148 1056.53125 971.74462891 C1063.36290562 982.23512668 1070.13317835 992.76406614 1076.875 1003.3125 C1083.37165098 1013.4765411 1089.92370315 1023.60289841 1096.50927734 1033.70947266 C1100.24573387 1039.45061826 1103.96031851 1045.20595842 1107.67919922 1050.95849609 C1108.9734554 1052.95897117 1110.26961316 1054.95819997 1111.56640625 1056.95703125 C1117.03421658 1065.38879737 1122.46336293 1073.84456305 1127.875 1082.3125 C1134.37904077 1092.48820144 1140.9384521 1102.62628188 1147.53125 1112.74462891 C1154.36290562 1123.23512668 1161.13317835 1133.76406614 1167.875 1144.3125 C1172.82681777 1152.05964226 1177.79716006 1159.79381588 1182.8125 1167.5 C1183.33344238 1168.30155518 1183.85438477 1169.10311035 1184.39111328 1169.92895508 C1186.9865171 1173.91933736 1189.59298066 1177.90194872 1192.21484375 1181.875 C1192.98187622 1183.04385742 1192.98187622 1183.04385742 1193.7644043 1184.23632812 C1194.7260526 1185.70163677 1195.69208474 1187.16408169 1196.66333008 1188.62304688 C1198.75871481 1191.82462657 1200.06110138 1194.24440552 1201 1198 C1032.7 1198.495 1032.7 1198.495 861 1199 C860.67 1199.66 860.34 1200.32 860 1201 C576.2 1201 292.4 1201 0 1201 C0 804.67 0 408.34 0 0 Z " fill="#092E58" transform="translate(1600,504)"/>
<path d="M0 0 C0.66 0 1.32 0 2 0 C3.85543604 2.42280078 5.59528411 4.85625245 7.3125 7.375 C8.40268393 8.94728198 9.4938621 10.51887496 10.5859375 12.08984375 C11.15022461 12.90437012 11.71451172 13.71889648 12.29589844 14.55810547 C14.96543318 18.38341872 17.69909018 22.16132886 20.4375 25.9375 C21.24634644 27.05487549 21.24634644 27.05487549 22.0715332 28.19482422 C23.16700292 29.70807298 24.26278743 31.22109391 25.35888672 32.73388672 C28.07648173 36.486448 30.78794473 40.24343419 33.5 44 C34.58330362 45.50002146 35.66663696 47.00002146 36.75 48.5 C85.5 116 85.5 116 134.25 183.5 C134.7864917 184.24282227 135.3229834 184.98564453 135.87573242 185.75097656 C136.95667191 187.24768701 138.03756401 188.74443168 139.1184082 190.24121094 C141.8629754 194.04182637 144.60841966 197.84180298 147.35546875 201.640625 C152.65682231 208.97333833 157.94655437 216.31361844 163.19873047 223.68164062 C168.2098587 230.70564895 173.27069471 237.69378507 178.32666016 244.68554688 C181.05263139 248.45593019 183.77621534 252.22803694 186.5 256 C187.58332144 257.50000859 188.66665479 259.00000858 189.75 260.5 C212.5 292 212.5 292 235.25 323.5 C235.7864917 324.24282227 236.3229834 324.98564453 236.87573242 325.75097656 C237.95667191 327.24768701 239.03756401 328.74443168 240.1184082 330.24121094 C242.8629754 334.04182637 245.60841966 337.84180298 248.35546875 341.640625 C253.65682231 348.97333833 258.94655437 356.31361844 264.19873047 363.68164062 C269.2098587 370.70564895 274.27069471 377.69378507 279.32666016 384.68554688 C282.05263139 388.45593019 284.77621534 392.22803694 287.5 396 C288.58332144 397.50000859 289.66665479 399.00000858 290.75 400.5 C305.91666667 421.5 321.08333333 442.5 336.25 463.5 C336.7864917 464.24282227 337.3229834 464.98564453 337.87573242 465.75097656 C338.95667191 467.24768701 340.03756401 468.74443168 341.1184082 470.24121094 C343.8629754 474.04182637 346.60841966 477.84180298 349.35546875 481.640625 C354.65682231 488.97333833 359.94655437 496.31361844 365.19873047 503.68164062 C370.2098587 510.70564895 375.27069471 517.69378507 380.32666016 524.68554688 C383.0526314 528.45593022 385.77618569 532.22805832 388.5 536 C389.02875732 536.73202637 389.55751465 537.46405273 390.10229492 538.21826172 C392.9365396 542.14207109 395.76973858 546.06663062 398.6015625 549.9921875 C399.19130859 550.80945312 399.78105469 551.62671875 400.38867188 552.46875 C401.51787978 554.03363654 402.64680161 555.59872956 403.77539062 557.1640625 C404.28521484 557.87046875 404.79503906 558.576875 405.3203125 559.3046875 C405.76648926 559.92327637 406.21266602 560.54186523 406.67236328 561.17919922 C407.64225157 562.5093623 408.6455716 563.81532952 409.66748047 565.10595703 C411 567 411 567 411 569 C140.4 569 -130.2 569 -409 569 C-407.61404709 566.22809419 -406.39413833 563.99827704 -404.63671875 561.5234375 C-403.93494507 560.53162476 -403.93494507 560.53162476 -403.21899414 559.51977539 C-402.71360107 558.81199951 -402.20820801 558.10422363 -401.6875 557.375 C-401.15697021 556.62790771 -400.62644043 555.88081543 -400.07983398 555.11108398 C-394.64146233 547.46643756 -389.14561582 539.8632096 -383.64111328 532.26611328 C-380.92351827 528.513552 -378.21205527 524.75656581 -375.5 521 C-374.41669638 519.49997854 -373.33336304 517.99997854 -372.25 516.5 C-371.71375 515.7575 -371.1775 515.015 -370.625 514.25 C-235.75 327.5 -235.75 327.5 -234.12426758 325.24902344 C-233.04332809 323.75231299 -231.96243599 322.25556832 -230.8815918 320.75878906 C-228.1370246 316.95817363 -225.39158034 313.15819702 -222.64453125 309.359375 C-217.74654666 302.58459258 -212.85255912 295.80741898 -208 289 C-202.59201881 281.41340642 -197.13272873 273.86409859 -191.67333984 266.31445312 C-188.94736861 262.54406981 -186.22378466 258.77196306 -183.5 255 C-182.41667856 253.49999141 -181.33334521 251.99999142 -180.25 250.5 C-179.71375 249.7575 -179.1775 249.015 -178.625 248.25 C-134.75 187.5 -134.75 187.5 -133.12426758 185.24902344 C-132.04332809 183.75231299 -130.96243599 182.25556832 -129.8815918 180.75878906 C-127.1370246 176.95817363 -124.39158034 173.15819702 -121.64453125 169.359375 C-116.74654666 162.58459258 -111.85255912 155.80741898 -107 149 C-101.59201881 141.41340642 -96.13272873 133.86409859 -90.67333984 126.31445312 C-87.94736861 122.54406981 -85.22378466 118.77196306 -82.5 115 C-81.41667856 113.49999141 -80.33334521 111.99999142 -79.25 110.5 C-78.71375 109.7575 -78.1775 109.015 -77.625 108.25 C-33.75 47.5 -33.75 47.5 -32.12451172 45.24951172 C-31.04256821 43.75131101 -29.96086198 42.25293892 -28.87939453 40.75439453 C-26.15172912 36.97541574 -23.41984675 33.19961886 -20.6796875 29.4296875 C-19.57787739 27.91163802 -18.47631299 26.39341017 -17.375 24.875 C-16.84156982 24.14039551 -16.30813965 23.40579102 -15.75854492 22.64892578 C-13.05311838 18.90587498 -10.39638312 15.13799707 -7.80859375 11.3125 C-7.30344238 10.56629395 -6.79829102 9.82008789 -6.27783203 9.05126953 C-5.3205191 7.62949555 -4.36938206 6.20353829 -3.42529297 4.77294922 C-2.33298895 3.14761084 -1.17291482 1.56815934 0 0 Z " fill="#1D5A98" transform="translate(1149,1133)"/>
<path d="M0 0 C1.71546021 0.13305542 1.71546021 0.13305542 3.46557617 0.26879883 C45.88599316 3.84465723 87.53054616 17.18053566 116.25390625 50.1015625 C151.99856131 94.15926309 158.03974228 154.8863222 153.0625 209.625 C152.7045016 212.84764731 152.24849105 216.04629824 151.75 219.25 C151.6046582 220.21873047 151.45931641 221.18746094 151.30957031 222.18554688 C146.77325832 251.32297602 137.74748268 281.11798075 118.75 304.25 C118.34313965 304.75934082 117.9362793 305.26868164 117.51708984 305.79345703 C89.25818888 341.13017091 48.27105432 355.93594472 4.48610401 360.94801521 C-3.62837687 361.8436134 -11.62612746 362.39760256 -19.79174805 362.37939453 C-20.78202499 362.38114685 -21.77230194 362.38289917 -22.79258728 362.38470459 C-26.03231617 362.38906776 -29.27198941 362.3862036 -32.51171875 362.3828125 C-34.78937287 362.3834874 -37.06702691 362.38445897 -39.34468079 362.38571167 C-44.10796803 362.38718139 -48.87123644 362.38505846 -53.63452148 362.38037109 C-59.69839075 362.37469056 -65.76221557 362.37794683 -71.82608318 362.38394356 C-76.52851182 362.38758272 -81.23093018 362.38639499 -85.93335915 362.38381577 C-88.16695982 362.3831549 -90.40056146 362.38394506 -92.634161 362.38629532 C-95.77655832 362.38887559 -98.918887 362.38490631 -102.0612793 362.37939453 C-103.40778564 362.38243088 -103.40778564 362.38243088 -104.78149414 362.38552856 C-110.40974968 362.36751763 -115.99814506 362.10845205 -121.61239338 361.74206352 C-122.34935811 361.69494112 -123.08632284 361.64781873 -123.84561983 361.59926838 C-125.64714916 361.48392252 -127.44858459 361.36711153 -129.25 361.25 C-129.27286436 315.40515067 -129.2904972 269.56030193 -129.30106533 223.71544803 C-129.30231611 218.30907797 -129.30361042 212.90270793 -129.30493164 207.49633789 C-129.30519395 206.41997888 -129.30545626 205.34361988 -129.30572652 204.23464393 C-129.31008366 186.78216285 -129.31797144 169.32968505 -129.3271528 151.87720592 C-129.33648813 133.98345493 -129.34205535 116.08970567 -129.34408849 98.19595236 C-129.34546397 87.14515012 -129.34981591 76.09435714 -129.35791647 65.04355776 C-129.36318244 57.47649631 -129.36480464 49.90943969 -129.36350138 42.34237654 C-129.36285776 37.96969592 -129.36387813 33.59703155 -129.36920547 29.22435379 C-129.37403908 25.22799613 -129.37433891 21.23166577 -129.37089889 17.23530691 C-129.37047316 15.78307745 -129.37176923 14.33084634 -129.37488318 12.87862016 C-129.37884664 10.91751776 -129.3761566 8.95640518 -129.37304783 6.99530125 C-129.37342755 5.90208642 -129.37380727 4.80887159 -129.3741985 3.68252903 C-129.25 1.25 -129.25 1.25 -128.25 0.25 C-125.72063452 0.1248121 -123.21724601 0.06393135 -120.6862793 0.04467773 C-119.49531395 0.02982834 -119.49531395 0.02982834 -118.2802887 0.01467896 C-115.62829634 -0.01713653 -112.9762873 -0.04182469 -110.32421875 -0.06640625 C-108.46458004 -0.08701139 -106.60494563 -0.10800871 -104.74531555 -0.12937927 C-100.8200632 -0.17348165 -96.8947952 -0.21434305 -92.96948242 -0.25268555 C-88.02424681 -0.30102041 -83.07909143 -0.35476324 -78.13393593 -0.41064262 C-14.19546864 -1.13159688 -14.19546864 -1.13159688 0 0 Z M-64.25 48.25 C-64.25 136.03 -64.25 223.81 -64.25 314.25 C-1.11640698 316.59639382 -1.11640698 316.59639382 52.22998047 288.79345703 C79.67960802 260.92057792 84.83345883 218.84964827 84.74316406 181.41601562 C84.13199142 146.3671355 78.89776954 108.30983822 54.75 81.25 C54.02425781 80.43015625 53.29851563 79.6103125 52.55078125 78.765625 C30.13840056 54.90847927 0.23638828 48.67937357 -31.25 47.25 C-42.25504935 47.25 -53.25067202 47.89518297 -64.25 48.25 Z " fill="#0A2F58" transform="translate(2665.25,1992.75)"/>
<path d="M0 0 C1.16128418 0.08797852 2.32256836 0.17595703 3.51904297 0.26660156 C34.13662102 2.81771559 62.52312927 10.97784635 84.12109375 33.75 C101.51442612 54.36431984 107.27169085 80.94460607 105.54492188 107.4375 C103.39657773 131.04842787 94.3455093 154.68375915 75.75 170.25 C65.23214447 178.31973398 54.07978315 183.49858733 41.75 188.25 C42.39324219 188.67667969 43.03648437 189.10335937 43.69921875 189.54296875 C63.84630541 203.48210859 76.57099989 222.81605379 87.75 244.25 C88.21954102 245.13606934 88.68908203 246.02213867 89.17285156 246.93505859 C98.64182699 264.8839449 106.51478617 283.4241643 114.3368988 302.1313324 C117.09510976 308.71812455 119.90190041 315.28298412 122.73046875 321.83984375 C123.1413121 322.79307526 123.55215546 323.74630676 123.97544861 324.72842407 C125.58241155 328.4557475 127.18986475 332.18284403 128.80307007 335.9074707 C129.91107921 338.46685064 131.01452242 341.02815782 132.1171875 343.58984375 C132.44144211 344.33507797 132.76569672 345.08031219 133.09977722 345.84812927 C135.28724665 350.94339173 136.98217498 355.94652494 138.75 361.25 C115.65 361.25 92.55 361.25 68.75 361.25 C66.048125 355.083125 63.34625 348.91625 60.5625 342.5625 C57.29624738 335.12298039 54.02489136 327.68572047 50.75 320.25 C50.42312195 319.50756042 50.0962439 318.76512085 49.75946045 318.00018311 C30.48334186 273.0055407 30.48334186 273.0055407 3.75 232.25 C3.11835937 231.45335938 2.48671875 230.65671875 1.8359375 229.8359375 C-9.37781982 216.40711701 -21.52087757 211.43228061 -38.25 207.25 C-47.16 206.59 -56.07 205.93 -65.25 205.25 C-65.25 256.73 -65.25 308.21 -65.25 361.25 C-86.37 361.25 -107.49 361.25 -129.25 361.25 C-129.25 242.12 -129.25 122.99 -129.25 0.25 C-13.48239244 -1.03630675 -13.48239244 -1.03630675 0 0 Z M-65.25 45.25 C-65.25 82.54 -65.25 119.83 -65.25 158.25 C-16.05646994 161.65395675 -16.05646994 161.65395675 25.5234375 141.6640625 C35.20049185 131.17209831 37.75 118.18634464 37.75 104.25 C36.63865191 87.49295454 32.42083516 72.31975162 20.0625 60.4375 C-3.43635115 40.64899377 -36.88292468 45.25 -65.25 45.25 Z " fill="#0A2F58" transform="translate(1189.25,1992.75)"/>
<path d="M0 0 C11.69770989 12.15970475 19.00076069 26.73385325 22.75 43.125 C22.97558594 44.10210938 23.20117188 45.07921875 23.43359375 46.0859375 C28.39715307 72.17029749 23.84823449 99.1619864 10.75 122.125 C8.57674678 125.28030906 6.23429324 128.21218066 3.75 131.125 C3.14027344 131.93195312 2.53054687 132.73890625 1.90234375 133.5703125 C-8.38602496 145.78191529 -24.57487878 152.76293648 -39.25 158.125 C-38.64414063 158.52589844 -38.03828125 158.92679688 -37.4140625 159.33984375 C-15.94966562 173.90261148 -3.16835208 194.62531992 8.75 217.125 C9.15766602 217.88441895 9.56533203 218.64383789 9.98535156 219.42626953 C18.79262865 235.9425126 25.86246181 253.21668892 33.09317017 270.45927429 C36.18836437 277.82547513 39.34246974 285.16539529 42.51171875 292.5 C42.99489563 293.61980759 43.47807251 294.73961517 43.97589111 295.89335632 C46.85642605 302.56937469 46.85642605 302.56937469 49.74627686 309.24136353 C51.08699986 312.33201857 52.42109048 315.42545984 53.75390625 318.51953125 C54.15929123 319.44890503 54.56467621 320.37827881 54.98234558 321.33581543 C55.34854507 322.18897339 55.71474457 323.04213135 56.09204102 323.92114258 C56.41382828 324.66431229 56.73561554 325.40748199 57.06715393 326.173172 C57.75 328.125 57.75 328.125 57.75 331.125 C34.98 331.125 12.21 331.125 -11.25 331.125 C-17.9873847 317.6502306 -17.9873847 317.6502306 -20.15234375 312.55078125 C-20.64259033 311.40504639 -21.13283691 310.25931152 -21.63793945 309.07885742 C-22.14929443 307.87720947 -22.66064941 306.67556152 -23.1875 305.4375 C-29.78399256 290.05123435 -36.67366332 274.80535092 -43.66113281 259.59326172 C-44.9705092 256.73508702 -46.26698011 253.8718739 -47.5546875 251.00390625 C-60.00883519 223.51167205 -76.90735003 191.62293724 -106.40625 179.8671875 C-119.26426275 175.88592208 -131.47637528 176.1452685 -145.25 175.125 C-145.25 226.605 -145.25 278.085 -145.25 331.125 C-166.37 331.125 -187.49 331.125 -209.25 331.125 C-209.25 211.995 -209.25 92.865 -209.25 -29.875 C-33.07786984 -31.83246811 -33.07786984 -31.83246811 0 0 Z M-145.25 15.125 C-145.25 52.415 -145.25 89.705 -145.25 128.125 C-100.69845429 131.14348944 -100.69845429 131.14348944 -60.25 116.125 C-59.0434375 115.320625 -59.0434375 115.320625 -57.8125 114.5 C-48.1854579 105.57737561 -43.78474664 93.49334979 -43.046875 80.56640625 C-42.8229253 62.03456832 -46.18241667 45.72467868 -59.28125 31.99609375 C-81.93264892 10.37057341 -116.86964828 15.125 -145.25 15.125 Z " fill="#0A2F58" transform="translate(2220.25,2022.875)"/>
<path d="M0 0 C70.95 0 141.9 0 215 0 C215 16.17 215 32.34 215 49 C165.17 49 115.34 49 64 49 C64 82 64 115 64 149 C104.92 149 145.84 149 188 149 C187.38817167 155.73011168 186.7501757 162.24918998 185.625 168.87890625 C185.49561035 169.6576561 185.3662207 170.43640594 185.23291016 171.23875427 C184.96257862 172.8597754 184.69027315 174.48046856 184.41601562 176.10083008 C183.99572353 178.58780494 183.58340471 181.07601488 183.171875 183.56445312 C182.90671676 185.1485157 182.64110858 186.73250304 182.375 188.31640625 C182.25205566 189.05903214 182.12911133 189.80165802 182.00244141 190.56678772 C181.11529352 195.76941296 181.11529352 195.76941296 180 198 C141.72 198 103.44 198 64 198 C64 235.62 64 273.24 64 312 C116.47 312 168.94 312 223 312 C223 328.17 223 344.34 223 361 C149.41 361 75.82 361 0 361 C0 241.87 0 122.74 0 0 Z " fill="#0A2F58" transform="translate(746,1993)"/>
<path d="M0 0 C70.95 0 141.9 0 215 0 C215 16.17 215 32.34 215 49 C165.17 49 115.34 49 64 49 C64 82 64 115 64 149 C104.92 149 145.84 149 188 149 C187.38817167 155.73011168 186.7501757 162.24918998 185.625 168.87890625 C185.49561035 169.6576561 185.3662207 170.43640594 185.23291016 171.23875427 C184.96257862 172.8597754 184.69027315 174.48046856 184.41601562 176.10083008 C183.99572353 178.58780494 183.58340471 181.07601488 183.171875 183.56445312 C182.90671676 185.1485157 182.64110858 186.73250304 182.375 188.31640625 C182.25205566 189.05903214 182.12911133 189.80165802 182.00244141 190.56678772 C181.11529352 195.76941296 181.11529352 195.76941296 180 198 C141.72 198 103.44 198 64 198 C64 235.62 64 273.24 64 312 C116.47 312 168.94 312 223 312 C223 328.17 223 344.34 223 361 C149.41 361 75.82 361 0 361 C0 241.87 0 122.74 0 0 Z " fill="#0A2F58" transform="translate(81,1993)"/>
<path d="M0 0 C70.62 0 141.24 0 214 0 C214 16.17 214 32.34 214 49 C164.5 49 115 49 64 49 C64 82 64 115 64 149 C104.92 149 145.84 149 188 149 C182 187 182 187 180 198 C141.72 198 103.44 198 64 198 C64 235.62 64 273.24 64 312 C116.14 312 168.28 312 222 312 C222 328.17 222 344.34 222 361 C148.74 361 75.48 361 0 361 C0 241.87 0 122.74 0 0 Z " fill="#0A2F58" transform="translate(2920,1993)"/>
<path d="M0 0 C2.18273908 0.01069732 4.3646493 0.00004903 6.54736328 -0.01269531 C20.23359233 -0.02830775 33.42273354 1.76930466 46.75439453 4.88574219 C48.41039673 5.27270264 48.41039673 5.27270264 50.09985352 5.66748047 C65.15126538 9.30143006 79.92078372 13.97383739 94.00439453 20.44824219 C94.68123291 20.75681152 95.35807129 21.06538086 96.05541992 21.38330078 C100.33760748 23.45967983 103.17439507 25.78176094 106.31689453 29.26074219 C99.79508257 41.2005529 93.18521289 53.08670935 86.47045898 64.91918945 C85.94282959 65.84916748 85.4152002 66.77914551 84.87158203 67.73730469 C84.40220215 68.56311035 83.93282227 69.38891602 83.44921875 70.23974609 C82.70766039 71.56329506 81.99537676 72.90377773 81.31689453 74.26074219 C76.34556592 73.72104137 72.53500566 72.03463894 68.19189453 69.69824219 C44.11653194 57.27780697 13.45217445 45.16882643 -13.87060547 53.21386719 C-24.7618135 57.26781684 -33.12762852 61.66685805 -38.70263672 72.07714844 C-43.34702552 82.42062789 -41.60316338 97.19216459 -37.87841797 107.46777344 C-26.49230874 134.07257114 2.22429224 145.3475856 27.45703125 155.61230469 C46.79160489 163.4861986 68.15139956 172.38689135 83.31689453 187.26074219 C83.31689453 187.92074219 83.31689453 188.58074219 83.31689453 189.26074219 C84.161875 189.59912109 84.161875 189.59912109 85.02392578 189.94433594 C97.11392476 196.88527232 105.08928576 215.00212369 108.75439453 227.82324219 C116.18147834 259.87161753 112.05781148 290.50283149 95.29345703 318.65917969 C78.93424839 343.77573422 52.39002997 359.69776444 23.46557617 366.11523438 C12.83487925 368.19795436 2.5075513 368.7844015 -8.30810547 368.69824219 C-9.1362677 368.69486847 -9.96442993 368.69149475 -10.81768799 368.6880188 C-51.2816337 368.45025872 -89.11550111 354.56920975 -123.68310547 334.26074219 C-121.67060473 327.72780979 -119.14217147 321.59408317 -116.23388672 315.41308594 C-115.81640671 314.51578262 -115.3989267 313.61847931 -114.96879578 312.69398499 C-113.64895382 309.85991989 -112.32240591 307.02905519 -110.99560547 304.19824219 C-110.09346559 302.26420592 -109.19176858 300.329963 -108.29052734 298.39550781 C-106.093164 293.68151581 -103.88978546 288.97037969 -101.68310547 284.26074219 C-97.82626021 285.46884739 -94.32301352 286.84393903 -90.76904297 288.76464844 C-89.39582886 289.49808472 -89.39582886 289.49808472 -87.99487305 290.24633789 C-87.02573975 290.76671631 -86.05660645 291.28709473 -85.05810547 291.82324219 C-55.44214482 307.45891031 -22.55701476 324.00279979 11.52392578 314.53027344 C16.70746891 312.79530792 20.93940894 310.5011075 25.31689453 307.26074219 C26.36876953 306.55949219 27.42064453 305.85824219 28.50439453 305.13574219 C37.17953902 297.47105487 41.38182945 284.48152319 42.31689453 273.26074219 C43.05816593 258.81498987 40.96996522 245.84583807 31.72314453 234.26464844 C30.01091456 232.45146151 28.23753928 230.85091162 26.31689453 229.26074219 C25.68009766 228.72320313 25.04330078 228.18566406 24.38720703 227.63183594 C12.8837163 218.80976386 -1.54066146 213.54006191 -14.80810547 207.94824219 C-39.80092229 197.39863013 -63.12819318 186.1007409 -83.68310547 168.26074219 C-84.48619141 167.57367187 -85.28927734 166.88660156 -86.11669922 166.17871094 C-95.59888657 157.42151981 -102.50948365 145.35398245 -106.68310547 133.26074219 C-107.12396484 132.00197266 -107.12396484 132.00197266 -107.57373047 130.71777344 C-115.04018421 107.69620773 -114.59453367 80.56460941 -103.80810547 58.76074219 C-90.18266094 32.70243167 -68.06063499 14.96592242 -40.34716797 5.78808594 C-38.89885718 5.33435569 -37.44836458 4.8875214 -35.99560547 4.44824219 C-35.35582764 4.25327148 -34.7160498 4.05830078 -34.05688477 3.85742188 C-22.8523917 0.6725879 -11.58412139 -0.06724429 0 0 Z " fill="#0A2F58" transform="translate(1498.68310546875,1988.7392578125)"/>
<path d="M0 0 C22.44 0 44.88 0 68 0 C72.49982929 11.24957323 72.49982929 11.24957323 73.82080078 15.08349609 C74.27482521 16.39529594 74.27482521 16.39529594 74.73802185 17.7335968 C75.21188072 19.11456795 75.21188072 19.11456795 75.6953125 20.5234375 C76.21249596 22.02084724 76.21249596 22.02084724 76.74012756 23.54850769 C77.87063662 26.82324458 78.99778249 30.09912881 80.125 33.375 C80.92462299 35.69271773 81.72451387 38.01034306 82.5246582 40.32788086 C84.18792008 45.14611569 85.85002985 49.96474552 87.51123047 54.78369141 C91.02042134 64.96148922 94.54019442 75.13562173 98.06158447 85.3092041 C99.19107979 88.5728437 100.31992163 91.83670885 101.44873047 95.10058594 C104.93922115 105.1891105 108.43973015 115.27390584 111.97265625 125.34765625 C126.00686882 165.37042338 139.21458801 205.63142118 152.06219482 246.05004883 C153.3795591 250.19393756 154.69825301 254.33740287 156.01686096 258.480896 C157.34481848 262.65385288 158.67243075 266.82691958 160 271 C162.08895606 265.55161617 163.98063549 260.08597566 165.71484375 254.515625 C166.23458864 252.86137435 166.75445048 251.20716044 167.27441406 249.55297852 C167.54483521 248.69020294 167.81525635 247.82742737 168.09387207 246.93850708 C174.22363036 227.40394927 180.58633009 207.95711531 187.13665771 188.56005859 C188.05122869 185.84809217 188.96267213 183.13508896 189.87353516 180.421875 C198.46747537 154.83298171 207.30348151 129.34377749 216.46411133 103.95214844 C221.04182038 91.26133997 225.58225093 78.55867636 230.0703125 65.8359375 C230.32756733 65.10698084 230.58482216 64.37802418 230.84987259 63.62697792 C233.38862262 56.43313173 235.92505231 49.23848114 238.45438194 42.04131699 C239.39607406 39.36364011 240.34013877 36.68680349 241.28469467 34.01013565 C241.92034645 32.20629938 242.5529238 30.40138058 243.18533325 28.59640503 C246.58525158 18.96783291 250.29259808 9.53331921 254 0 C275.45 0 296.9 0 319 0 C317.87507131 6.74957216 317.87507131 6.74957216 316.66259766 9.94482422 C316.3883194 10.6759845 316.11404114 11.40714478 315.83145142 12.16046143 C315.52871307 12.95055603 315.22597473 13.74065063 314.9140625 14.5546875 C314.59013519 15.41374695 314.26620789 16.2728064 313.9324646 17.15789795 C313.21701304 19.05322762 312.49900528 20.94759381 311.77880859 22.84112549 C310.59103148 25.9643183 309.4099536 29.08997532 308.23046875 32.21630859 C306.4607446 36.90606474 304.68856241 41.59488248 302.91503906 46.28320312 C297.86960959 59.62636003 292.86507714 72.98493121 287.85626602 86.34186554 C286.99620781 88.63511143 286.13588101 90.9282564 285.27548218 93.22137451 C276.6175757 116.29751797 268.01024781 139.39209461 259.4375 162.5 C250.19321647 187.41732867 240.90493082 212.31745397 231.55615234 237.19580078 C226.4538961 250.77527631 221.35958461 264.35773579 216.26492691 277.94006348 C215.38066676 280.29739311 214.49629875 282.65468226 213.61190796 285.01196289 C205.84046385 305.72703612 198.08788414 326.4488485 190.40380859 347.1965332 C190.10434326 348.00396469 189.80487793 348.81139618 189.49633789 349.64329529 C188.95107983 351.11360216 188.40673351 352.58424765 187.86352539 354.05531311 C186.11246053 358.77507893 186.11246053 358.77507893 185 361 C168.17 361 151.34 361 134 361 C120.87334005 326.26054152 107.78437586 291.50836141 94.875 256.6875 C86.6430659 234.48529486 78.38327175 212.29407789 70.0625 190.125 C69.81885208 189.47576694 69.57520416 188.82653389 69.32417297 188.15762711 C65.81356265 178.80313495 62.30070055 169.44948907 58.78731537 160.09603882 C54.34797259 148.27735069 49.90971719 136.45825511 45.47423172 124.63811874 C44.90981399 123.13400117 44.34536866 121.62989395 43.78089523 120.12579727 C33.83551429 93.62444253 23.9565572 67.09870933 14.12105179 40.55638409 C13.06981658 37.7196924 12.01806958 34.88319058 10.96630859 32.0466938 C10.25733835 30.13381773 9.54930225 28.22059553 8.84130859 26.30735779 C8.4072168 25.13641068 7.973125 23.96546356 7.52587891 22.7590332 C6.90462128 21.0830455 6.90462128 21.0830455 6.27081299 19.37319946 C4.53844569 14.77486714 2.73083944 10.20671129 0.91000366 5.64274597 C0 3 0 3 0 0 Z " fill="#0A2F58" transform="translate(354,1993)"/>
<path d="M0 0 C83.16 0 166.32 0 252 0 C251.38817167 6.73011168 250.7501757 13.24918998 249.625 19.87890625 C249.43091553 21.04703102 249.43091553 21.04703102 249.23291016 22.23875427 C248.96257862 23.8597754 248.69027315 25.48046856 248.41601562 27.10083008 C247.99572353 29.58780494 247.58340471 32.07601488 247.171875 34.56445312 C246.90671676 36.1485157 246.64110858 37.73250304 246.375 39.31640625 C246.25205566 40.05903214 246.12911133 40.80165802 246.00244141 41.56678772 C245.11529352 46.76941296 245.11529352 46.76941296 244 49 C214.63 49 185.26 49 155 49 C155 151.96 155 254.92 155 361 C133.88 361 112.76 361 91 361 C91 258.04 91 155.08 91 49 C60.97 49 30.94 49 0 49 C0 32.83 0 16.66 0 0 Z " fill="#0A2F58" transform="translate(1675,1993)"/>
<path d="M0 0 C21.12 0 42.24 0 64 0 C64 119.13 64 238.26 64 361 C42.88 361 21.76 361 0 361 C0 241.87 0 122.74 0 0 Z " fill="#0A2F58" transform="translate(2357,1993)"/>
<path d="M0 0 C2.83417891 0.35119173 3.81648089 0.78491224 5.703125 2.99609375 C6.21359375 3.80175781 6.7240625 4.60742188 7.25 5.4375 C7.77078125 6.24058594 8.2915625 7.04367187 8.828125 7.87109375 C10 10 10 10 10 12 C10.99 12.33 11.98 12.66 13 13 C14.80967349 15.64490741 15.98472371 17.95417113 17 21 C17.99 21.66 18.98 22.32 20 23 C20.6875 26.125 20.6875 26.125 21 29 C16.61313668 24.92821526 13.31784511 20.42382345 9.9375 15.5 C8.90643045 14.00939009 7.87391193 12.51978126 6.83984375 11.03125 C6.11450439 9.98517578 6.11450439 9.98517578 5.37451172 8.91796875 C4.18860146 7.26317106 2.91589673 5.67121444 1.62890625 4.09375 C0 2 0 2 0 0 Z " fill="#103962" transform="translate(1859,866)"/>
<path d="M0 0 C5.96397295 3.69766323 9.66929624 7.79000654 13 14 C13 14.66 13 15.32 13 16 C13.66 16 14.32 16 15 16 C15 17.65 15 19.3 15 21 C11.03185035 17.24634493 7.83203497 13.2707518 4.6875 8.8125 C4.23310547 8.18408203 3.77871094 7.55566406 3.31054688 6.90820312 C0 2.25352444 0 2.25352444 0 0 Z " fill="#123F66" transform="translate(1964,1012)"/>
<path d="M0 0 C2.3125 0.625 2.3125 0.625 5 2 C6.625 4.9375 6.625 4.9375 8 8 C8.97850195 9.02104551 9.97980427 10.0206121 11 11 C13.25 13.9375 13.25 13.9375 15 17 C14.609375 19.19140625 14.609375 19.19140625 14 21 C11.84791077 18.06703659 9.7044305 15.12788836 7.5625 12.1875 C6.95083984 11.35412109 6.33917969 10.52074219 5.70898438 9.66210938 C5.12568359 8.85966797 4.54238281 8.05722656 3.94140625 7.23046875 C3.40201416 6.49207764 2.86262207 5.75368652 2.30688477 4.99291992 C1 3 1 3 0 0 Z " fill="#123862" transform="translate(1928,962)"/>
<path d="M0 0 C4.94051984 1.37236662 6.45818774 3.65432098 9 8 C9.38671875 8.6084375 9.7734375 9.216875 10.171875 9.84375 C11.20320483 11.51083109 12.11016646 13.25328971 13 15 C12.67 15.99 12.34 16.98 12 18 C10.99421411 16.71283353 9.99553202 15.42011342 9 14.125 C8.443125 13.40570312 7.88625 12.68640625 7.3125 11.9453125 C6 10 6 10 6 8 C5.34 8 4.68 8 4 8 C0 2.58823529 0 2.58823529 0 0 Z " fill="#103766" transform="translate(1710,659)"/>
<path d="M0 0 C2.63662913 0.65915728 4.48156599 1.33831449 6.1875 3.515625 C8.20349266 6.92502435 9.51785976 10.02234305 10 14 C6.07511907 10.29939798 2.97784457 6.5093075 0 2 C0 1.34 0 0.68 0 0 Z " fill="#113D61" transform="translate(1882,898)"/>
<path d="M0 0 C2.63662913 0.65915728 4.48156599 1.33831449 6.1875 3.515625 C8.20349266 6.92502435 9.51785976 10.02234305 10 14 C6.07511907 10.29939798 2.97784457 6.5093075 0 2 C0 1.34 0 0.68 0 0 Z " fill="#103C63" transform="translate(1669,602)"/>
<path d="M0 0 C4.68128343 2.70474154 7.14034215 4.85859301 9 10 C8.67 10.99 8.34 11.98 8 13 C6.66094733 11.2126038 5.32890934 9.41995047 4 7.625 C3.2575 6.62726563 2.515 5.62953125 1.75 4.6015625 C0 2 0 2 0 0 Z " fill="#123A61" transform="translate(2037,1113)"/>
<path d="M0 0 C1.34173403 0.92543709 2.67320159 1.86577405 4 2.8125 C5.11375 3.59560547 5.11375 3.59560547 6.25 4.39453125 C6.8275 4.92433594 7.405 5.45414063 8 6 C8 6.99 8 7.98 8 9 C8.66 9 9.32 9 10 9 C9.67 9.99 9.34 10.98 9 12 C5.74483572 8.83525695 2.67991207 5.67247209 0 2 C0 1.34 0 0.68 0 0 Z " fill="#113F64" transform="translate(1812,801)"/>
<path d="M0 0 C3.05397571 0.32721168 4.03116777 1.03116777 6.25 3.25 C8.13357065 6.20989673 8.39141851 7.57508802 8 11 C2.19794344 5.35475578 2.19794344 5.35475578 0 2 C0 1.34 0 0.68 0 0 Z " fill="#113963" transform="translate(1838,837)"/>
<path d="M0 0 C3.74249678 0.93562419 5.42695386 2.20892004 7.375 5.4375 C9 9 9 9 8 12 C6.66081194 10.37982158 5.3288031 8.75370657 4 7.125 C3.2575 6.22007812 2.515 5.31515625 1.75 4.3828125 C0 2 0 2 0 0 Z " fill="#123E67" transform="translate(1953,997)"/>
<path d="M0 0 C3.64566186 0.98531402 4.80178732 1.68946681 6.875 4.9375 C8 8 8 8 7 11 C5.82750647 9.54634731 4.66216184 8.08692581 3.5 6.625 C2.52546875 5.40683594 2.52546875 5.40683594 1.53125 4.1640625 C0 2 0 2 0 0 Z " fill="#113F66" transform="translate(1897,919)"/>
<path d="M0 0 C2.475 0.99 2.475 0.99 5 2 C5 2.66 5 3.32 5 4 C6.62553283 5.70680947 8.29115995 7.37660195 10 9 C9.01 9.66 8.02 10.32 7 11 C5.82750647 9.54634731 4.66216184 8.08692581 3.5 6.625 C2.52546875 5.40683594 2.52546875 5.40683594 1.53125 4.1640625 C0 2 0 2 0 0 Z " fill="#113D64" transform="translate(1761,730)"/>
<path d="M0 0 C3.64566186 0.98531402 4.80178732 1.68946681 6.875 4.9375 C8 8 8 8 7 11 C5.82750647 9.54634731 4.66216184 8.08692581 3.5 6.625 C2.52546875 5.40683594 2.52546875 5.40683594 1.53125 4.1640625 C0 2 0 2 0 0 Z " fill="#113C63" transform="translate(1918,948)"/>
<path d="M0 0 C1.75 0.125 1.75 0.125 4 1 C6.3125 3.8125 6.3125 3.8125 8 7 C7.60546875 9.19921875 7.60546875 9.19921875 7 11 C5.82750647 9.54634731 4.66216184 8.08692581 3.5 6.625 C2.52546875 5.40683594 2.52546875 5.40683594 1.53125 4.1640625 C0 2 0 2 0 0 Z " fill="#123E61" transform="translate(1640,562)"/>
<path d="M0 0 C5.75 3.625 5.75 3.625 8 7 C7.625 9.1875 7.625 9.1875 7 11 C5.82750647 9.54634731 4.66216184 8.08692581 3.5 6.625 C2.52546875 5.40683594 2.52546875 5.40683594 1.53125 4.1640625 C0 2 0 2 0 0 Z " fill="#154168" transform="translate(2010,1076)"/>
<path d="M0 0 C0.66 0 1.32 0 2 0 C2 0.66 2 1.32 2 2 C2.99 2 3.98 2 5 2 C6.6875 4.5 6.6875 4.5 8 7 C7.01 7.33 6.02 7.66 5 8 C4.16382818 6.8562364 3.33113541 5.70992861 2.5 4.5625 C2.0359375 3.92441406 1.571875 3.28632812 1.09375 2.62890625 C0 1 0 1 0 0 Z " fill="#103A65" transform="translate(2002,1065)"/>
<path d="M0 0 C0.66 0 1.32 0 2 0 C3.5078125 2.1875 3.5078125 2.1875 5.125 5 C5.66382813 5.928125 6.20265625 6.85625 6.7578125 7.8125 C7.37269531 8.8953125 7.37269531 8.8953125 8 10 C3.32056893 8.54485777 3.32056893 8.54485777 1.85546875 6.0546875 C1.63503906 5.33539062 1.41460938 4.61609375 1.1875 3.875 C0.95417969 3.15054688 0.72085937 2.42609375 0.48046875 1.6796875 C0.32191406 1.12539063 0.16335938 0.57109375 0 0 Z " fill="#07275F" transform="translate(1808,793)"/>
<path d="M0 0 C3 1.6875 3 1.6875 6 4 C6.375 6.75 6.375 6.75 6 9 C2.91910327 6.22719294 1.31224548 3.93673644 0 0 Z " fill="#133866" transform="translate(1824,817)"/>
<path d="M0 0 C1.875 0.25 1.875 0.25 4 1 C5.25 3.0625 5.25 3.0625 6 5 C5.34 5.66 4.68 6.32 4 7 C0 2.25 0 2.25 0 0 Z " fill="#103D62" transform="translate(1993,1052)"/>
<path d="M0 0 C1.98 0.99 3.96 1.98 6 3 C6 4.65 6 6.3 6 8 C1.125 3.375 1.125 3.375 0 0 Z " fill="#144465" transform="translate(1907,933)"/>
<path d="M0 0 C2.4375 0.625 2.4375 0.625 5 2 C5.8125 5.125 5.8125 5.125 6 8 C1.125 3.375 1.125 3.375 0 0 Z " fill="#143E62" transform="translate(1771,744)"/>
<path d="M0 0 C2.475 0.99 2.475 0.99 5 2 C5 3.65 5 5.3 5 7 C3.29115995 5.37660195 1.62553283 3.70680947 0 2 C0 1.34 0 0.68 0 0 Z " fill="#123A60" transform="translate(1620,534)"/>
<path d="M0 0 C1.32 1.32 2.64 2.64 4 4 C3.01 5.485 3.01 5.485 2 7 C0.4375 5.1875 0.4375 5.1875 -1 3 C-0.67 2.01 -0.34 1.02 0 0 Z " fill="#0D3664" transform="translate(1609,516)"/>
<path d="M0 0 C2.475 0.99 2.475 0.99 5 2 C5 3.65 5 5.3 5 7 C3.29115995 5.37660195 1.62553283 3.70680947 0 2 C0 1.34 0 0.68 0 0 Z " fill="#123967" transform="translate(1602,509)"/>
<path d="" fill="#000000" transform="translate(0,0)"/>
<path d="" fill="#000080" transform="translate(0,0)"/>
<path d="" fill="#005555" transform="translate(0,0)"/>
<path d="" fill="#000080" transform="translate(0,0)"/>
<path d="" fill="#000080" transform="translate(0,0)"/>
<path d="" fill="#005555" transform="translate(0,0)"/>
<path d="" fill="#00007F" transform="translate(0,0)"/>
<path d="" fill="#005555" transform="translate(0,0)"/>
<path d="" fill="#005555" transform="translate(0,0)"/>
<path d="" fill="#000000" transform="translate(0,0)"/>
<path d="" fill="#000080" transform="translate(0,0)"/>
<path d="" fill="#005555" transform="translate(0,0)"/>
</svg>
